# xmcd
#
# Track frame offsets:
#	150
#	17600
#	35690
#	53705
#	75010
#	91347
#	111460
#	130995
#	150502
#	167127
#	185585
#	200927
#	218222
#	238217
#	255835
#
# Disc length: 3709
#
# Revision: 1
# Processed by: cddbd v1.5.1PL0 Copyright (c) Steve Scherf et al.
# Submitted via: EasyCDDAExtractor 4.6.0.1
# Normalized: r0:TDELIM( - )
#
DISCID=c70e7b0f
DTITLE=Various Artist - the Platinum Collection
DYEAR=2000
DGENRE=R&B
TTITLE0=T.L.C. - no scrubs
TTITLE1=Donell Jones - u know what's up (feat. Left Eye)
TTITLE2=Outkast - rosa parks
TTITLE3=the Tony Rich Project - nobody knows
TTITLE4=Usher - you make me wanna ...
TTITLE5=Toni Braxton - un-break my heart
TTITLE6=Toni Braxton - you're makin' me high
TTITLE7=Az Yet - last night
TTITLE8=Usher - nice and slow
TTITLE9=T.L.C. - waterfalls
TTITLE10=Pink - tere you go
TTITLE11=Whitney Houston - i'm your baby tonight
TTITLE12=Toni Braxton - breathe again
TTITLE13=T.L.C. - creep
TTITLE14=Toni Braxton - another sad love song
EXTD=
EXTT0=1999
EXTT1=1999
EXTT2=1998
EXTT3=1995\n
EXTT4=1997
EXTT5=1996
EXTT6=1996
EXTT7=1996\n
EXTT8=1997
EXTT9=1994
EXTT10=1999
EXTT11=1990
EXTT12=1992
EXTT13=1994
EXTT14=1992
PLAYORDER=
